+8_ID_stride3.mot
nRows=5
nColumns=38

name +8_ID_stride3.mot
datacolumns 38
datarows 5
range 1.1050000000 1.1250000000
endheader
time	pelvis_tilt_moment	pelvis_list_moment	pelvis_rotation_moment	pelvis_tx_force	pelvis_ty_force	pelvis_tz_force	hip_flexion_r_moment	hip_adduction_r_moment	hip_rotation_r_moment	knee_angle_r_moment	ankle_angle_r_moment	subtalar_angle_r_moment	mtp_angle_r_moment	hip_flexion_l_moment	hip_adduction_l_moment	hip_rotation_l_moment	knee_angle_l_moment	ankle_angle_l_moment	subtalar_angle_l_moment	mtp_angle_l_moment	lumbar_extension_moment	lumbar_bending_moment	lumbar_rotation_moment	arm_flex_r_moment	arm_add_r_moment	arm_rot_r_moment	elbow_flex_r_moment	pro_sup_r_moment	wrist_flex_r_moment	wrist_dev_r_moment	arm_flex_l_moment	arm_add_l_moment	arm_rot_l_moment	elbow_flex_l_moment	pro_sup_l_moment	wrist_flex_l_moment	wrist_dev_l_moment
        1.1050000000	        5.4652971466	       10.2131688984	       33.6681475813	      -29.1588610827	      -43.5245849094	      -36.7684370846	      -14.8381670119	       -1.4046653316	       -0.4726563412	       -0.4387895281	        2.4699128877	       -0.4487876560	        0.1413844220	        7.4482325077	      -48.2918752387	       -8.5002859422	       12.7550377431	     -186.8635205087	       26.6555216785	       -0.0307567339	       33.1016354467	        7.4329889012	       42.2089759672	        6.7876250755	        5.6382618478	        4.5728484098	        5.2148298829	        0.0346589569	        0.5926524970	       -0.3289391302	       -1.4316063805	       -2.2315407866	       -3.4908170393	        4.8820187886	       -0.2119987157	       -0.3041920875	       -0.5016766383	
        1.1100000000	        9.4657975718	        0.1472478362	       30.5403127374	      -29.1435766383	      -53.0739964302	      -40.6467055664	      -16.1002786207	       -5.0894372972	        0.3858979510	       -0.8713090938	        2.5729094888	       -0.5526935255	        0.1430259368	        6.5704465196	      -44.1742411312	       -7.3934279391	        5.7581626894	     -174.9019064384	       26.0641841088	       -0.0365653878	       24.1820613205	        3.7944923299	       42.7693711185	        6.8337548391	        5.5555011474	        4.5584053730	        4.7775824640	        0.0456385717	        0.5832540511	       -0.2877066863	       -1.6490561362	       -2.5596905342	       -3.6473891452	        4.3388547535	       -0.2077312099	       -0.3322814835	       -0.4571986321	
        1.1150000000	       13.4306117810	      -13.7053546829	       26.2318052659	      -29.5957026352	      -53.4477074895	      -39.0369274259	      -17.7493193890	       -8.9570570397	        1.0049647060	       -1.4372038261	        2.6665647740	       -0.6498988074	        0.1449178700	        3.2493479401	      -40.4176077438	       -6.6809102188	       -2.0044517050	     -161.6414958316	       24.7588684844	       -0.0422618471	       16.1327222332	        0.0428437957	       41.9297156834	        6.7090702174	        5.3456008580	        4.4309801532	        4.3316195092	        0.0519216571	        0.5597702835	       -0.2497709769	       -1.7502519828	       -2.6879358029	       -3.6160298557	        3.8062713285	       -0.1989073627	       -0.3356888526	       -0.4099721294	
        1.1200000000	       17.3515535440	      -22.6072479490	       21.1154589971	      -31.2028736978	      -53.0658789325	      -37.5610390576	      -19.8653366509	      -12.2410336699	        1.2431888659	       -2.1181058653	        2.7443378420	       -0.7367643013	        0.1467355640	        1.1750823331	      -36.6259552024	       -5.8692441015	       -7.5873320962	     -147.6085620554	       23.1311497872	       -0.0473541608	        9.5228912221	       -3.9367748187	       39.8371605927	        6.4027085477	        5.0149553539	        4.1676875246	        3.8955113598	        0.0542959236	        0.5234334368	       -0.2160164757	       -1.7866476297	       -2.7215463046	       -3.5059921266	        3.2961688082	       -0.1861425605	       -0.3352800134	       -0.3623826352	
        1.1250000000	       21.1887153929	      -24.5208535585	       15.5583100971	      -36.2171118484	      -46.3999986826	      -40.4691421209	      -22.6546411898	      -14.2678058695	        1.1933663892	       -2.9105253085	        2.8006876419	       -0.8093027150	        0.1482025041	        6.2990429530	      -32.3815142355	       -4.2934147647	       -9.8107116486	     -133.1913979688	       21.7779660565	       -0.0512221884	        4.8888675376	       -8.2896170711	       36.8406413665	        5.9669265721	        4.6002001614	        3.8280641259	        3.4877123718	        0.0544240701	        0.4794026955	       -0.1877756862	       -1.7901777257	       -2.6103679802	       -3.2599105616	        2.8224689845	       -0.1707165849	       -0.3164419809	       -0.3165778593	
